<?xml version="1.0" encoding="utf-8"?>
<!-- Generator: Adobe Illustrator 18.0.0, SVG Export Plug-In . SVG Version: 6.00 Build 0)  -->
<!DOCTYPE svg PUBLIC "-//W3C//DTD SVG 1.1//EN" "http://www.w3.org/Graphics/SVG/1.1/DTD/svg11.dtd">
<svg class="icon" version="1.1" id="Calque_1" xmlns="http://www.w3.org/2000/svg" xmlns:xlink="http://www.w3.org/1999/xlink" x="0px" y="0px"
	 width="68px" height="68px" viewBox="0 0 68 68" enable-background="new 0 0 68 68" xml:space="preserve">
<path class="icon-foreground" d="M33.8,1.7C15.5,1.7,0.7,16.5,0.7,34.8c0,14.8,9.6,27.2,22.7,31.4c1.6,0.3,2.3-0.7,2.3-1.6c0-0.7,0-2.8,0-5.6
	c-9.3,2-11.1-4.5-11.1-4.5c-1.4-3.9-3.8-4.9-3.8-4.9c-3.1-2,0.3-2,0.3-2c3.4,0.3,5.1,3.5,5.1,3.5c3.1,5.1,7.8,3.6,9.7,2.7
	c0.3-2.1,1.1-3.6,2.1-4.5c-7.3-0.9-15.2-3.8-15.2-16.5c0-3.6,1.3-6.6,3.5-9c-0.4-0.9-1.4-4.2,0.3-8.9c0,0,2.7-0.9,9.1,3.5
	c2.6-0.7,5.5-1.1,8.2-1.1c2.8,0,5.6,0.4,8.2,1.1c6.3-4.4,9.1-3.5,9.1-3.5C53,19.7,52,23,51.5,24c2.1,2.3,3.5,5.3,3.5,9
	c0,12.7-7.8,15.6-15.2,16.3c1.1,1,2.3,3.1,2.3,6.2c0,4.5,0,7.9,0,9.1c0,0.9,0.6,1.8,2.3,1.6c13.3-4.4,22.8-16.8,22.8-31.4
	C67.1,16.5,52.2,1.7,33.8,1.7"/>
</svg>
