<?xml version="1.0" encoding="utf-8"?>
<!-- Generator: Adobe Illustrator 18.0.0, SVG Export Plug-In . SVG Version: 6.00 Build 0)  -->
<!DOCTYPE svg PUBLIC "-//W3C//DTD SVG 1.1//EN" "http://www.w3.org/Graphics/SVG/1.1/DTD/svg11.dtd">
<svg class="icon" version="1.1" id="Calque_1" xmlns="http://www.w3.org/2000/svg" xmlns:xlink="http://www.w3.org/1999/xlink" x="0px" y="0px"
	 width="68px" height="68px" viewBox="0 0 68 68" enable-background="new 0 0 68 68" xml:space="preserve">
<path class="icon-foreground" d="M50,60.5c0-23.3-19.2-42.6-42.6-42.6V7.4c29.1,0,53.3,24,53.3,53.3L50,60.5L50,60.5z M14.8,45.8c4.1,0,7.3,3.3,7.3,7.3
	s-3.3,7.3-7.3,7.3s-7.3-3.3-7.3-7.3S10.6,45.9,14.8,45.8L14.8,45.8z M42.7,60.5H32.3c0-13.6-11.3-24.9-24.9-24.9V25.2
	C26.7,25.2,42.7,41.2,42.7,60.5z"/>
</svg>
